<?xml version="1.0" standalone="no"?><!DOCTYPE svg PUBLIC "-//W3C//DTD SVG 1.1//EN" "http://www.w3.org/Graphics/SVG/1.1/DTD/svg11.dtd"><svg t="1590042483170" class="icon" viewBox="0 0 1024 1024" version="1.1" xmlns="http://www.w3.org/2000/svg" p-id="4613" xmlns:xlink="http://www.w3.org/1999/xlink" width="200" height="200"><defs><style type="text/css"></style></defs><path d="M445.140293 877.617951c-242.138537 0-438.446829-196.308293-438.44683-438.471805C6.693463 197.00761 203.001756 0.699317 445.140293 0.699317c242.163512 0 438.471805 196.308293 438.471805 438.446829 0 242.163512-196.308293 438.471805-438.471805 438.471805z m0-99.902439c186.99239 0 338.569366-151.576976 338.569366-338.569366 0-186.967415-151.601951-338.54439-338.569366-338.54439-186.967415 0-338.54439 151.576976-338.544391 338.54439 0 186.99239 151.576976 338.569366 338.544391 338.569366z" fill="#BBBDC0" p-id="4614"></path><path d="M668.877426 733.509228l78.48292-78.48292 274.725541 274.725541-78.48292 78.48292-274.725541-274.725541Z" fill="#BBBDC0" p-id="4615"></path></svg>